<svg xmlns="http://www.w3.org/2000/svg" width="18" height="32" enable-background="new 0 0 18 32" overflow="visible" viewBox="0 0 18 32" id="one-finger-gesture"><switch><g><path fill="#fcccbb" d="M16,0c-1.1,0-2,0.9-2,2v10c0,1.1-0.9,2-2,2H0v9c0,5,4,9,9,9
							s9-4,9-9V2C18,0.9,17.1,0,16,0z"></path><path fill="#f9ae91" d="M6 9c-1.1 0-2 .9-2 2v6c0 1.1.9 2 2 2s2-.9 2-2v-6C8 9.9 7.1 9 6 9zM10 9c-1.1 0-2 .9-2 2v6c0 1.1.9 2 2 2s2-.9 2-2v-6C12 9.9 11.1 9 10 9zM2 9c-1.1 0-2 .9-2 2v6c0 1.1.9 2 2 2s2-.9 2-2v-6C4 9.9 3.1 9 2 9z"></path><path fill="#ffc2a9" d="M15,17l-5.6-5.6c-0.8,0.8-1.2,1.7-1.4,2.7C8,14.4,8,14.6,8,14.8
							c0,0.1,0,0.2,0,0.2c0,0.3,0,0.5,0.1,0.8c0,0.1,0,0.1,0,0.2c0.1,0.2,0.1,0.5,0.2,0.7c0,0,0,0.1,0.1,0.1
							c0.1,0.3,0.2,0.5,0.4,0.8c0,0.1,0.1,0.1,0.1,0.2c0.2,0.2,0.4,0.5,0.6,0.7l1.2,1.2c-2,1.6-3.4,4.2-3.4,7c0,2,0.6,3.8,1.7,5.3
							c4.4,0,8-3.1,8.8-7.2c0-0.1,0-0.1,0-0.2c0-0.2,0.1-0.5,0.1-0.7c0-0.3,0-0.6,0-0.9v-3L15,17z"></path></g></switch></svg>